<svg width="30" height="30" viewBox="0 0 30 30" fill="none" xmlns="http://www.w3.org/2000/svg">
<path fill-rule="evenodd" clip-rule="evenodd" d="M15 26.4857L15.9014 25.47C16.9243 24.2995 17.8448 23.1857 18.6629 22.1286L19.3386 21.2372C22.1605 17.4362 23.5714 14.4205 23.5714 12.19C23.5714 7.43001 19.7343 3.57144 15 3.57144C10.2657 3.57144 6.42859 7.43001 6.42859 12.19C6.42859 14.4205 7.83954 17.4367 10.6614 21.2386L11.3372 22.13C12.5051 23.6262 13.7268 25.0781 15 26.4857Z" stroke="black" stroke-linecap="round" stroke-linejoin="round"/>
<path d="M15 15.7143C16.9725 15.7143 18.5714 14.1153 18.5714 12.1429C18.5714 10.1704 16.9725 8.57144 15 8.57144C13.0276 8.57144 11.4286 10.1704 11.4286 12.1429C11.4286 14.1153 13.0276 15.7143 15 15.7143Z" stroke="black" stroke-linecap="round" stroke-linejoin="round"/>
</svg>
