<svg width="26" height="26" viewBox="0 0 26 26" fill="none" xmlns="http://www.w3.org/2000/svg">
<path d="M4.0625 21.9375L10.1562 15.8438M22.75 10.5625C22.75 11.5228 22.5609 12.4737 22.1934 13.3609C21.8259 14.2481 21.2872 15.0542 20.6082 15.7332C19.9292 16.4122 19.1231 16.9509 18.2359 17.3184C17.3487 17.6859 16.3978 17.875 15.4375 17.875C14.4772 17.875 13.5263 17.6859 12.6391 17.3184C11.7519 16.9509 10.9458 16.4122 10.2668 15.7332C9.58775 15.0542 9.04912 14.2481 8.68163 13.3609C8.31414 12.4737 8.125 11.5228 8.125 10.5625C8.125 8.6231 8.89542 6.76314 10.2668 5.39178C11.6381 4.02042 13.4981 3.25 15.4375 3.25C17.3769 3.25 19.2369 4.02042 20.6082 5.39178C21.9796 6.76314 22.75 8.6231 22.75 10.5625Z" stroke="#04208F" stroke-linecap="round" stroke-linejoin="round"/>
</svg>
