<svg width="18" height="18" viewBox="0 0 18 18" fill="none" xmlns="http://www.w3.org/2000/svg">
<path d="M18 9C18 9 14.625 2.8125 9 2.8125C3.375 2.8125 0 9 0 9C0 9 3.375 15.1875 9 15.1875C14.625 15.1875 18 9 18 9ZM1.31963 9C1.86275 8.17266 2.48846 7.40259 3.18712 6.70162C4.635 5.2515 6.615 3.9375 9 3.9375C11.385 3.9375 13.3639 5.2515 14.814 6.70162C15.5127 7.40259 16.1384 8.17266 16.6815 9C16.617 9.0975 16.5439 9.2055 16.4621 9.324C16.0853 9.864 15.5284 10.584 14.814 11.2984C13.3639 12.7485 11.3839 14.0625 9 14.0625C6.61613 14.0625 4.63613 12.7485 3.186 11.2984C2.48734 10.5974 1.86275 9.82734 1.31963 9Z" fill="#056DAE"/>
<path d="M9 6.1875C8.25408 6.1875 7.53871 6.48382 7.01126 7.01126C6.48382 7.53871 6.1875 8.25408 6.1875 9C6.1875 9.74592 6.48382 10.4613 7.01126 10.9887C7.53871 11.5162 8.25408 11.8125 9 11.8125C9.74592 11.8125 10.4613 11.5162 10.9887 10.9887C11.5162 10.4613 11.8125 9.74592 11.8125 9C11.8125 8.25408 11.5162 7.53871 10.9887 7.01126C10.4613 6.48382 9.74592 6.1875 9 6.1875ZM5.0625 9C5.0625 7.95571 5.47734 6.95419 6.21577 6.21577C6.95419 5.47734 7.95571 5.0625 9 5.0625C10.0443 5.0625 11.0458 5.47734 11.7842 6.21577C12.5227 6.95419 12.9375 7.95571 12.9375 9C12.9375 10.0443 12.5227 11.0458 11.7842 11.7842C11.0458 12.5227 10.0443 12.9375 9 12.9375C7.95571 12.9375 6.95419 12.5227 6.21577 11.7842C5.47734 11.0458 5.0625 10.0443 5.0625 9Z" fill="#056DAE"/>
</svg>
