<svg width="60" height="34" viewBox="0 0 60 34" fill="none" xmlns="http://www.w3.org/2000/svg">
<g clip-path="url(#clip0_4_19)">
<path d="M0.278748 23.0413C0.278748 16.9922 5.32635 12.283 11.9048 12.283C15.7112 12.283 19.1866 13.9474 21.1725 16.4645L18.3177 19.2657C17.5605 18.3144 16.5944 17.5429 15.4912 17.0087C14.388 16.4745 13.1763 16.1913 11.9461 16.1803C8.01564 16.1803 4.87123 19.0627 4.87123 23.0413C4.87123 27.0604 8.01564 29.9427 11.9461 29.9427C13.2203 29.9413 14.4769 29.6511 15.6179 29.0947C16.759 28.5384 17.7537 27.7311 18.5246 26.7356L21.338 29.4555C19.4348 32.0945 15.7939 33.8401 11.9048 33.8401C5.32635 33.8401 0.278748 29.1308 0.278748 23.0413Z" fill="#255BE3"/>
<path d="M25.0616 13.0137H29.5715V33.1094H25.0616V13.0137Z" fill="#255BE3"/>
<path d="M37.9703 27.7099V16.7487H33.0468V13.0137H38.1774V8.7104L42.3974 6.68054V13.0137H49.1V16.7487H42.3974V26.9792C42.3974 29.0092 43.5559 29.9021 45.7485 29.9021C46.8897 29.9079 48.0185 29.6725 49.0585 29.2121V33.0281C47.7556 33.5891 46.3438 33.8663 44.9212 33.8401C40.9079 33.8401 37.9703 31.6886 37.9703 27.7099Z" fill="#255BE3"/>
<path d="M52.658 13.0137H57.1677V33.1094H52.658V13.0137Z" fill="#255BE3"/>
<path d="M41.0729 0.225559C44.7768 0.216885 48.4285 1.0829 51.7194 2.75047C55.0103 4.41804 57.8438 6.83818 59.9809 9.80652H54.7265C53.0041 7.92816 50.8985 6.42617 48.5465 5.39802C46.1944 4.36986 43.6479 3.83857 41.0729 3.83857C38.4979 3.83857 35.9518 4.36986 33.5997 5.39802C31.2476 6.42617 29.142 7.92816 27.4197 9.80652H22.1652C24.3023 6.83818 27.1359 4.41804 30.4268 2.75047C33.7176 1.0829 37.3691 0.216885 41.0729 0.225559Z" fill="#FF3C28"/>
</g>
<defs>
<clipPath id="clip0_4_19">
<rect width="60" height="34" fill="white"/>
</clipPath>
</defs>
</svg>
