<svg width="242" height="153" viewBox="0 0 242 153" fill="none" xmlns="http://www.w3.org/2000/svg">
<path d="M2.57288 6.01848C26.4719 6.01848 47.9755 6.01848 66.7285 5.32908C86.039 4.61919 107.375 1.84033 119.958 2.52973C128.75 3.01138 84.9104 4.1801 50.8793 1.62447C33.4282 0.313946 15.4695 1.36681 7.15493 2.06319C-1.1596 2.75956 0.678782 3.6788 2.77482 6.68012C8.02937 14.2041 11.3749 26.8397 15.0795 62.1033C18.05 90.3787 18.7841 140.109 38.5747 149.594C58.3652 159.078 96.0522 126.906 127.416 104.129C158.78 81.3507 182.679 68.9415 199.817 61.8596C226.606 53.3988 238.388 51.9782 240.025 52.208C239.823 52.4378 237.525 52.8975 233.764 53.371" stroke="#333333" stroke-width="2" stroke-linecap="round"/>
</svg>
